<?xml version="1.0" encoding="UTF-8"?>
<svg width="870px" height="870px" viewBox="0 0 870 870" version="1.1" xmlns="http://www.w3.org/2000/svg" xmlns:xlink="http://www.w3.org/1999/xlink">
    <!-- Generator: Sketch 47.1 (45422) - http://www.bohemiancoding.com/sketch -->
    <title>Facebook</title>
    <desc>Created with Sketch.</desc>
    <defs></defs>
    <g id="Page-2" stroke="none" stroke-width="1" fill="none" fill-rule="evenodd">
        <path d="M869.976302,821.964208 C869.976302,848.48224 848.48224,870 821.964208,870 L600.269667,870 L600.269667,533.085912 L713.356396,533.085912 L730.300447,401.799139 L600.269667,401.799139 L600.269667,317.955709 C600.269667,279.94416 610.838963,254.042275 665.344302,254.042275 L734.874156,254.018577 L734.874156,136.571421 C722.835585,134.983657 681.577413,131.405263 633.565319,131.405263 C533.322892,131.405263 464.693561,192.59343 464.693561,304.96922 L464.693561,401.799139 L351.322456,401.799139 L351.322456,533.085912 L464.693561,533.085912 L464.693561,870 L48.0120941,870 C21.4940619,870 0,848.48224 0,821.964208 L0,48.0357921 C0,21.4940619 21.4940619,0 48.0120941,0 L821.964208,0 C848.48224,0 869.976302,21.4940619 869.976302,48.0357921 L869.976302,821.964208" id="Facebook" fill="#151515"></path>
    </g>
</svg>