<?xml version="1.0" encoding="UTF-8"?>
<svg width="870px" height="870px" viewBox="0 0 870 870" version="1.1" xmlns="http://www.w3.org/2000/svg" xmlns:xlink="http://www.w3.org/1999/xlink">
    <!-- Generator: Sketch 47.1 (45422) - http://www.bohemiancoding.com/sketch -->
    <title>Instagram</title>
    <desc>Created with Sketch.</desc>
    <defs></defs>
    <g id="Page-2" stroke="none" stroke-width="1" fill="none" fill-rule="evenodd">
        <path d="M766.586204,0 L103.413796,0 C46.2965387,0 0,46.1778905 0,103.176499 L0,766.823501 C0,823.79838 46.2965387,870 103.413796,870 L766.586204,870 C823.703461,870 870,823.79838 870,766.823501 L870,103.176499 C870,46.1778905 823.703461,0 766.586204,0 L766.586204,0 Z M625.323623,135.923411 C625.323623,120.926274 637.496932,108.752966 652.494068,108.752966 L734.05286,108.752966 C749.073726,108.752966 761.247034,120.926274 761.247034,135.923411 L761.247034,217.505932 C761.247034,232.503068 749.073726,244.676377 734.05286,244.676377 L652.494068,244.676377 C637.496932,244.676377 625.323623,232.503068 625.323623,217.505932 L625.323623,135.923411 L625.323623,135.923411 Z M436.00851,269.094182 C528.41175,269.094182 603.326242,343.842566 603.326242,436.00851 C603.326242,528.198183 528.41175,602.922838 436.00851,602.922838 C343.628999,602.922838 268.714508,528.198183 268.714508,436.00851 C268.714508,343.842566 343.628999,269.094182 436.00851,269.094182 L436.00851,269.094182 Z M788.441208,761.247034 C788.441208,776.24417 776.2679,788.441208 761.247034,788.441208 L108.752966,788.441208 C93.7321005,788.441208 81.5587922,776.24417 81.5587922,761.247034 L81.5587922,353.429343 L190.311758,353.429343 C176.14516,373.813109 171.351772,411.851731 171.351772,436.00851 C171.351772,581.589886 290.094919,700.048278 436.00851,700.048278 C581.945831,700.048278 700.688978,581.589886 700.688978,436.00851 C700.688978,411.851731 697.248179,374.40635 679.688242,353.429343 L788.441208,353.429343 L788.441208,761.247034 L788.441208,761.247034 Z" id="Instagram" fill="#151515"></path>
    </g>
</svg>