<?xml version="1.0" encoding="UTF-8"?>
<svg width="1021px" height="851px" viewBox="0 0 1021 851" version="1.1" xmlns="http://www.w3.org/2000/svg" xmlns:xlink="http://www.w3.org/1999/xlink">
    <!-- Generator: Sketch 47.1 (45422) - http://www.bohemiancoding.com/sketch -->
    <title>Twitter</title>
    <desc>Created with Sketch.</desc>
    <defs></defs>
    <g id="Page-3" stroke="none" stroke-width="1" fill="none" fill-rule="evenodd">
        <path d="M992.839559,15.729501 C952.32996,40.3187729 907.567671,58.2018797 859.724909,67.7704323 C821.614263,26.0613569 767.147118,0 706.846154,0 C591.260219,0 497.455691,96.1762209 497.455691,214.788108 C497.455691,231.635303 499.254906,247.964542 502.853336,263.694043 C328.765653,254.725229 174.442074,169.317037 71.0689931,39.2010787 C53.0223213,71.0417323 42.7177262,107.980162 42.7177262,147.317545 C42.7177262,221.794142 79.6834165,287.547273 135.922516,326.06683 C101.628388,325.030919 69.2697781,315.27154 40.9730329,299.296692 L40.9730329,301.913732 C40.9730329,406.022855 113.186981,492.875871 209.090594,512.530932 C191.534617,517.574186 172.99725,520.109444 153.887406,520.109444 C140.393293,520.109444 127.22631,518.800924 114.46824,516.292927 C141.129335,601.592075 218.441059,663.719515 310.119243,665.382426 C238.450511,723.011828 148.080848,757.360478 49.9691079,757.360478 C33.0673911,757.360478 16.3565001,756.379088 0,754.416308 C92.6868342,815.262489 202.847863,850.837877 321.105359,850.837877 C706.437241,850.837877 917.081702,523.598831 917.081702,239.73177 C917.081702,230.381305 916.918137,221.058099 916.563747,211.898459 C957.482258,181.611673 993.030385,143.800897 1021,100.72878 C983.489093,117.794062 943.088538,129.352655 900.725202,134.532214 C943.988145,107.980162 977.19184,65.8894348 992.839559,15.729501" id="Twitter" fill="#151515"></path>
    </g>
</svg>