<?xml version="1.0" encoding="UTF-8"?>
<svg width="990px" height="846px" viewBox="0 0 990 846" version="1.1" xmlns="http://www.w3.org/2000/svg" xmlns:xlink="http://www.w3.org/1999/xlink">
    <!-- Generator: Sketch 47.1 (45422) - http://www.bohemiancoding.com/sketch -->
    <title>Vimeo</title>
    <desc>Created with Sketch.</desc>
    <defs></defs>
    <g id="Page-3" stroke="none" stroke-width="1" fill="none" fill-rule="evenodd">
        <path d="M565.784561,228.597709 C590.875923,218.226252 615.319069,213.256596 639.032973,213.256596 C689.323733,213.256596 711.498123,240.913813 705.556143,296.579365 C702.531135,330.340617 680.464781,379.307936 639.032973,443.805432 C597.574155,508.167882 566.486795,540.308593 545.824909,540.308593 C519.167024,540.308593 494.831914,490.63904 472.603506,391.083861 C465.20304,361.806103 451.806575,287.126215 432.792238,166.990176 C414.912279,55.7400998 367.538491,3.69375416 290.697882,11.0672115 C258.098017,14.1192287 209.265743,43.3429682 144.282085,99.00852 C96.8542789,141.412652 48.7782565,183.92482 0,226.274934 L46.5635184,285.694738 C91.0203346,254.850458 116.813931,239.482336 124.214397,239.482336 C158.191721,239.482336 189.981316,292.203907 219.664208,397.701066 C246.322093,494.15021 272.871941,590.896453 299.610852,687.642696 C339.476138,793.085837 388.308413,845.645354 445.945622,845.645354 C539.126676,845.645354 653.15868,759.270568 787.744534,586.412959 C917.792876,421.090861 985.207343,290.826448 989.501774,195.511682 C995.497773,68.2452674 947.367732,2.99152012 845.435761,0.182583979 C707.824899,-4.24689225 614.697862,71.9184916 565.784561,228.597709 Z" id="Vimeo" fill="#151515"></path>
    </g>
</svg>